<svg id="Layer_1" data-name="Layer 1" xmlns="http://www.w3.org/2000/svg" viewBox="0 0 1423 1423"><title>logo-svg-1423x1423-crna</title><path d="M841.65,257.38v192.2H735.43V358h-432V780.93c33.23,17.68,55.69,51.32,55.69,90,0,56.92-48.71,103.07-108.8,103.07S141.53,927.84,141.53,870.92c0-38.67,22.45-72.31,55.69-90V257.38Z" transform="translate(0.5 -0.5)"/><path d="M1422.5,449.58V1423.5H-.5V75.25H1011.29C1031.77,31.26,1078.21.5,1132.23.5c73,0,132.16,55.92,132.16,125.06s-59.18,125.21-132.16,125.21c-54.18,0-100.46-30.76-120.94-74.89H105.72v1147H1316.28V550.21H500.69v510.6H641.2v.44h398.46V893.06c-40.66-17-70.4-52.76-77.38-95.74a112.12,112.12,0,0,1-1.52-19c0-69.14,59-125.21,132-125.21s132.17,56.07,132.17,125.21c0,51.32-32.48,95.31-79.06,114.72v268.81H641.2v-.43H394.47V449.58Z" transform="translate(0.5 -0.5)"/><path d="M897.18,823.19c0,56.93-48.71,103.07-108.64,103.07-60.09,0-108.8-46.14-108.8-103.07,0-38.67,22.46-72.31,55.69-89.84V550.21H841.65V733.35c27,14.37,46.88,39.38,53.26,69.14A92.68,92.68,0,0,1,897.18,823.19Z" transform="translate(0.5 -0.5)"/></svg>